<?xml version="1.0" standalone="no"?>
<!DOCTYPE svg PUBLIC "-//W3C//DTD SVG 20010904//EN"
 "http://www.w3.org/TR/2001/REC-SVG-20010904/DTD/svg10.dtd">
<svg version="1.0" xmlns="http://www.w3.org/2000/svg"
 width="29.000000pt" height="50.000000pt" viewBox="0 0 29.000000 50.000000"
 preserveAspectRatio="xMidYMid meet">

<g transform="translate(0.000000,50.000000) scale(0.100000,-0.100000)"
fill="#000000" stroke="none">
<path d="M60 375 l0 -105 85 0 85 0 0 105 0 105 -85 0 -85 0 0 -105z m60 50
c0 -18 -5 -25 -20 -25 -15 0 -20 7 -20 25 0 18 5 25 20 25 15 0 20 -7 20 -25z
m90 15 c0 -5 -18 -10 -40 -10 -22 0 -40 5 -40 10 0 6 18 10 40 10 22 0 40 -4
40 -10z m0 -30 c0 -5 -18 -10 -40 -10 -22 0 -40 5 -40 10 0 6 18 10 40 10 22
0 40 -4 40 -10z m0 -30 c0 -6 -28 -9 -67 -8 l-68 1 50 7 c78 11 85 11 85 0z
m-33 -37 c-20 -2 -52 -2 -70 0 -17 2 0 4 38 4 39 0 53 -2 32 -4z m0 -40 c-20
-2 -52 -2 -70 0 -17 2 0 4 38 4 39 0 53 -2 32 -4z"/>
<path d="M48 202 l-17 -57 54 -55 55 -55 0 56 c0 30 -5 60 -10 65 -15 15 -1
46 19 42 13 -3 15 -16 13 -83 l-4 -80 56 55 57 56 -16 37 c-8 20 -15 46 -15
57 0 19 -6 20 -87 20 l-88 0 -17 -58z"/>
</g>
</svg>
